<?xml version="1.0" encoding="UTF-8" standalone="no"?>
<!-- Created with Inkscape (http://www.inkscape.org/) -->

<svg
   width="200"
   height="200"
   viewBox="0 0 52.916667 52.916667"
   version="1.1"
   id="svg5"
   inkscape:version="1.2.2 (1:1.2.2+202212051552+b0a8486541)"
   sodipodi:docname="svg2tikz.svg"
   inkscape:export-filename="../logo/black.png"
   inkscape:export-xdpi="300"
   inkscape:export-ydpi="300"
   xmlns:inkscape="http://www.inkscape.org/namespaces/inkscape"
   xmlns:sodipodi="http://sodipodi.sourceforge.net/DTD/sodipodi-0.dtd"
   xmlns:xlink="http://www.w3.org/1999/xlink"
   xmlns="http://www.w3.org/2000/svg"
   xmlns:svg="http://www.w3.org/2000/svg">
  <sodipodi:namedview
     id="namedview7"
     pagecolor="#ffffff"
     bordercolor="#666666"
     borderopacity="1.0"
     inkscape:showpageshadow="2"
     inkscape:pageopacity="0.0"
     inkscape:pagecheckerboard="0"
     inkscape:deskcolor="#d1d1d1"
     inkscape:document-units="mm"
     showgrid="false"
     inkscape:zoom="3.0945209"
     inkscape:cx="117.3041"
     inkscape:cy="140.89418"
     inkscape:window-width="1918"
     inkscape:window-height="1173"
     inkscape:window-x="0"
     inkscape:window-y="0"
     inkscape:window-maximized="1"
     inkscape:current-layer="layer1"
     showguides="true">
    <sodipodi:guide
       position="0,26.458334"
       orientation="0,-1"
       id="guide1419"
       inkscape:locked="false" />
    <sodipodi:guide
       position="26.458333,52.916667"
       orientation="1,0"
       id="guide1421"
       inkscape:locked="false" />
    <sodipodi:guide
       position="30.237288,23.011088"
       orientation="0,-1"
       id="guide467"
       inkscape:locked="false" />
  </sodipodi:namedview>
  <defs
     id="defs2" />
  <g
     inkscape:groupmode="layer"
     id="layer6"
     inkscape:label="black_background"
     transform="translate(-1.3772575e-6)"
     style="display:none"
     sodipodi:insensitive="true">
    <rect
       style="display:inline;fill:#000000;fill-opacity:1;stroke:none;stroke-width:0.799999;stroke-linecap:square;stroke-dasharray:none;stroke-opacity:1"
       id="rect7241"
       width="52.916664"
       height="52.916664"
       x="0"
       y="0"
       transform="translate(1.3772575e-6)" />
  </g>
  <g
     inkscape:label="TikZ"
     inkscape:groupmode="layer"
     id="layer1"
     transform="matrix(1.6012338,0,0,1.6012338,-15.907643,-23.185329)">
    <g
       id="g472"
       style="stroke-width:0.31632251;stroke-dasharray:none"
       transform="matrix(0.98715456,0,0,0.98715456,0.33660306,0.48415374)">
      <path
         id="path6760"
         style="fill:#ff7f00;fill-opacity:1;stroke:none;stroke-width:0.31632251;stroke-dasharray:none"
         sodipodi:type="inkscape:offset"
         inkscape:radius="0.11836779"
         inkscape:original="M 28.748047 33.271484 C 27.917695 33.271484 27.167969 33.384866 27.167969 33.646484 C 27.179349 33.737484 27.269643 33.75 27.337891 33.75 L 27.429688 33.75 C 27.645806 33.75 28.021484 33.748492 28.021484 34.021484 L 28.021484 34.068359 C 27.998734 34.295853 27.918202 34.534568 27.861328 34.773438 L 26.144531 41.642578 C 26.133161 41.710828 26.097656 41.767689 26.097656 41.835938 C 26.097656 42.006557 26.281129 42.097656 26.40625 42.097656 C 26.804365 42.097656 26.826627 41.619961 26.90625 41.324219 L 27.361328 39.550781 C 27.395448 39.391535 27.440139 39.231167 27.462891 39.060547 C 28.043 39.140167 28.726562 39.460441 28.726562 40.154297 C 28.726562 40.415915 28.623047 40.676914 28.623047 40.972656 C 28.623047 41.518642 28.897364 42.097656 29.636719 42.097656 C 30.558069 42.097656 30.886719 40.312621 30.886719 40.1875 C 30.886719 40.11925 30.818246 40.107422 30.75 40.107422 C 30.408759 40.107422 30.399056 41.894531 29.580078 41.894531 C 29.272961 41.894531 29.214844 41.598243 29.214844 41.359375 C 29.214844 40.961261 29.408203 40.58527 29.408203 40.175781 C 29.408203 39.436426 28.771515 39.106855 28.191406 38.958984 C 28.05491 38.924864 27.917747 38.890625 27.78125 38.890625 L 27.78125 38.878906 C 28.770848 38.344295 29.33967 36.650391 30.431641 36.650391 C 30.579512 36.650391 30.704612 36.706561 30.818359 36.820312 C 30.533992 36.843063 30.330078 37.059383 30.330078 37.34375 C 30.330078 37.55987 30.51102 37.662109 30.681641 37.662109 C 31.011507 37.662109 31.205078 37.355024 31.205078 37.082031 C 31.205078 36.695292 30.842162 36.457031 30.466797 36.457031 C 29.181456 36.457031 28.657689 38.276857 27.542969 38.777344 C 27.656716 38.345105 27.7593 37.912363 27.873047 37.46875 L 28.863281 33.521484 C 28.874661 33.487364 28.884766 33.41889 28.884766 33.384766 L 28.884766 33.363281 C 28.884766 33.306401 28.851802 33.282864 28.794922 33.271484 L 28.748047 33.271484 z "
         d="m 28.748047,33.152344 c -0.420564,0 -0.81994,0.02785 -1.125,0.0918 -0.15253,0.03197 -0.281236,0.07301 -0.382813,0.130859 -0.101576,0.05785 -0.191406,0.149545 -0.191406,0.271484 a 0.11837963,0.11837963 0 0 0 0.002,0.01563 c 0.01039,0.08309 0.0734,0.151244 0.132813,0.177735 0.05941,0.02649 0.112937,0.0293 0.154297,0.0293 h 0.0918 c 0.108334,0 0.249062,3.76e-4 0.345703,0.02734 0.04832,0.01348 0.08335,0.03274 0.101562,0.05078 0.01821,0.01805 0.02539,0.03312 0.02539,0.07422 v 0.04297 0.0039 c -0.02233,0.205531 -0.09864,0.435784 -0.15625,0.677735 l -1.716797,6.867187 a 0.11837963,0.11837963 0 0 0 -0.002,0.0098 c -0.0066,0.03936 -0.04883,0.103589 -0.04883,0.212891 0,0.127737 0.07429,0.230846 0.158203,0.291015 0.08392,0.06017 0.178243,0.08984 0.269531,0.08984 0.1232,0 0.231026,-0.04119 0.310547,-0.107422 0.07952,-0.06623 0.130755,-0.153039 0.167969,-0.242187 0.07443,-0.178298 0.100346,-0.376623 0.136718,-0.511719 a 0.11837963,0.11837963 0 0 0 0,-0.002 l 0.455078,-1.773438 a 0.11837963,0.11837963 0 0 0 0,-0.0039 c 0.02468,-0.115177 0.05158,-0.244174 0.07617,-0.373047 0.244377,0.04605 0.496172,0.129176 0.689454,0.269531 0.221172,0.160609 0.365234,0.373583 0.365234,0.681641 0,0.230395 -0.103516,0.494997 -0.103516,0.818359 0,0.292817 0.07243,0.597803 0.253906,0.837891 0.181472,0.240087 0.47833,0.40625 0.878907,0.40625 0.268558,0 0.494744,-0.133432 0.669922,-0.318359 0.175177,-0.184928 0.308032,-0.423066 0.410156,-0.66211 0.102124,-0.239044 0.172351,-0.480104 0.21875,-0.669922 0.0232,-0.09491 0.04145,-0.176671 0.05273,-0.240234 0.01128,-0.06356 0.01758,-0.09712 0.01758,-0.138672 0,-0.07371 -0.05874,-0.149401 -0.113281,-0.173828 -0.05454,-0.02443 -0.101617,-0.02539 -0.142578,-0.02539 -0.09431,0 -0.165384,0.06247 -0.210938,0.126953 -0.04555,0.06448 -0.0788,0.142133 -0.111328,0.230469 -0.06506,0.176673 -0.123076,0.400268 -0.195312,0.619141 -0.07224,0.218872 -0.159437,0.430848 -0.267578,0.580078 -0.108141,0.14923 -0.22307,0.230469 -0.384766,0.230469 -0.115494,0 -0.15315,-0.03815 -0.191406,-0.113282 -0.03826,-0.07513 -0.05469,-0.1929 -0.05469,-0.302734 0,-0.359787 0.19336,-0.736843 0.19336,-1.183594 0,-0.403654 -0.181179,-0.711284 -0.433594,-0.921875 -0.252415,-0.21059 -0.57264,-0.333582 -0.873047,-0.410156 -0.04616,-0.01154 -0.100068,-0.01462 -0.148437,-0.02539 0.414987,-0.309783 0.751907,-0.770311 1.08789,-1.179687 0.398275,-0.485274 0.786705,-0.869141 1.271485,-0.869141 0.03957,0 0.07308,0.01207 0.107421,0.02148 -0.194856,0.110499 -0.328124,0.312118 -0.328124,0.552734 0,0.141094 0.06651,0.261562 0.158203,0.333984 0.09169,0.07242 0.203546,0.103516 0.3125,0.103516 0.201664,0 0.368318,-0.09849 0.476562,-0.232422 0.108244,-0.133931 0.166016,-0.302323 0.166016,-0.466797 0,-0.230395 -0.113954,-0.424226 -0.275391,-0.550781 -0.161437,-0.126555 -0.369304,-0.193359 -0.582031,-0.193359 -0.698534,0 -1.182008,0.493027 -1.617188,1.015625 -0.365143,0.438493 -0.713704,0.892755 -1.11914,1.167968 0.08621,-0.339478 0.16913,-0.677578 0.257812,-1.023437 l 0.990235,-3.947266 -0.0039,0.0078 c 0.01976,-0.05926 0.0293,-0.116337 0.0293,-0.173828 v -0.02148 c 0,-0.05131 -0.02253,-0.1109 -0.0625,-0.148437 -0.03997,-0.03754 -0.08353,-0.05069 -0.123047,-0.05859 a 0.11837963,0.11837963 0 0 0 -0.02344,-0.0039 z" />
      <path
         id="path6768"
         style="fill:#000000;fill-opacity:1;stroke:#ffffff;stroke-width:0.43452068;stroke-dasharray:none;stroke-opacity:1"
         sodipodi:type="inkscape:offset"
         inkscape:radius="0.35138825"
         inkscape:original="M 26.763672 -11.78125 L 26.591797 -7.984375 L 26.888672 -7.984375 C 26.888672 -8.9218747 27.091797 -9.843752 27.716797 -10.515625 C 28.48242 -11.312499 29.669924 -11.328125 30.685547 -11.328125 L 33.123047 -11.328125 C 32.560547 -10.484378 32.060544 -9.5937476 31.529297 -8.734375 C 29.888674 -6.0937554 28.232419 -3.4374941 26.623047 -0.8125 C 26.513676 -0.64062465 26.357422 -0.46874979 26.357422 -0.265625 C 26.357422 -0.09374965 26.419922 -0.015625 26.576172 -0.015625 L 34.279297 -0.015625 L 34.529297 -4.515625 L 34.216797 -4.515625 C 34.201167 -3.3906274 34.076171 -2.0468739 33.294922 -1.296875 C 32.513672 -0.53125339 31.355468 -0.5 30.308594 -0.5 L 27.685547 -0.5 C 27.904297 -0.90624959 28.185547 -1.3125009 28.435547 -1.703125 C 30.373042 -4.7656182 32.201177 -7.9062558 34.138672 -10.953125 C 34.248042 -11.124999 34.419921 -11.3125 34.435547 -11.515625 C 34.435547 -11.640628 34.419918 -11.78125 34.263672 -11.78125 L 26.763672 -11.78125 z M 0.875 -11.71875 L 0.578125 -7.9375 L 0.890625 -7.9375 C 0.9687499 -8.8281241 0.98437551 -10.078126 1.53125 -10.65625 C 2.0781244 -11.249999 2.9687508 -11.28125 3.71875 -11.28125 L 4.75 -11.28125 C 5.0937496 -11.28125 5.28125 -11.109375 5.28125 -10.734375 C 5.28125 -10.625001 5.265625 -10.5 5.265625 -10.421875 L 5.265625 -1.234375 C 5.265625 -0.53125073 4.6874994 -0.46875 4.125 -0.46875 L 3.328125 -0.46875 L 3.328125 -0.015625 L 8.34375 -0.015625 L 8.34375 -0.46875 L 7.53125 -0.46875 C 6.9531256 -0.46875 6.40625 -0.53125077 6.40625 -1.234375 L 6.40625 -10.421875 C 6.40625 -10.500005 6.390625 -10.625001 6.390625 -10.734375 C 6.390625 -11.109375 6.5781253 -11.28125 6.921875 -11.28125 L 7.953125 -11.28125 C 8.999999 -11.28125 10.234376 -11.203117 10.53125 -9.78125 C 10.6875 -9.1718756 10.734375 -8.5624994 10.78125 -7.9375 L 11.09375 -7.9375 L 10.796875 -11.71875 L 0.875 -11.71875 z M 13.746094 -11.328125 C 13.699224 -11.328125 13.652342 -11.3125 13.605469 -11.3125 C 13.230471 -11.25 13.027344 -10.921875 13.027344 -10.625 C 13.027344 -10.296875 13.308595 -9.921875 13.714844 -9.921875 C 14.152343 -9.921875 14.433594 -10.265625 14.433594 -10.625 C 14.433594 -10.9375 14.167969 -11.328124 13.746094 -11.328125 z M 14.402344 -7.5625 L 12.417969 -7.375 L 12.417969 -6.921875 L 12.667969 -6.921875 C 13.214843 -6.921875 13.527344 -6.7656244 13.527344 -6.046875 L 13.527344 -1.171875 C 13.527344 -0.56250062 13.324219 -0.46875 12.371094 -0.46875 L 12.371094 -0.015625 L 15.433594 -0.015625 L 15.433594 -0.46875 L 15.199219 -0.46875 C 14.792969 -0.46875 14.402344 -0.51562047 14.402344 -1.0625 L 14.402344 -7.5625 z "
         d="m 26.763672,-12.132812 a 0.35142338,0.35142338 0 0 0 -0.351563,0.335937 L 26.240234,-8 a 0.35142338,0.35142338 0 0 0 0.351563,0.3671875 h 0.296875 a 0.35142338,0.35142338 0 0 0 0.351562,-0.3515625 c 0,-0.8857449 0.192135,-1.7068698 0.732422,-2.289063 6.09e-4,-6.56e-4 0.0013,-0.0013 0.002,-0.002 0.641843,-0.663762 1.700952,-0.701171 2.710938,-0.701171 h 1.808594 c -0.432087,0.687409 -0.848152,1.3844726 -1.263672,2.0566401 -1.640423,2.6402981 -3.295939,5.2973016 -4.90625,7.92382815 l 0.002,-0.005859 c -0.08495,0.13350285 -0.320313,0.35299941 -0.320313,0.7363281 0,0.1285301 0.0183,0.28209302 0.134766,0.41796875 0.116465,0.13587573 0.298857,0.18359375 0.435547,0.18359375 h 7.703125 a 0.35142338,0.35142338 0 0 0 0.351562,-0.33203125 l 0.25,-4.50000005 a 0.35142338,0.35142338 0 0 0 -0.351562,-0.3710937 h -0.3125 a 0.35142338,0.35142338 0 0 0 -0.351563,0.3476563 c -0.01532,1.1028635 -0.170959,2.3509958 -0.814453,2.96875 a 0.35142338,0.35142338 0 0 0 -0.002,0.00391 c -0.66067,0.64745385 -1.700354,0.6953125 -2.740234,0.6953125 h -1.990235 c 0.140191,-0.2211382 0.271043,-0.438641 0.414063,-0.6621094 a 0.35142338,0.35142338 0 0 0 0,-0.00195 c 1.942133,-3.0698241 3.770594,-6.2089845 5.703125,-9.248047 0.08199,-0.128851 0.320137,-0.341496 0.349609,-0.724609 a 0.35142338,0.35142338 0 0 0 0.002,-0.02734 c 0,-0.07715 0.0055,-0.18305 -0.06055,-0.326172 -0.06606,-0.143121 -0.27935,-0.291016 -0.46289,-0.291015 z M 0.875,-12.070312 a 0.35142338,0.35142338 0 0 0 -0.34960938,0.324218 l -0.296875,3.7812502 A 0.35142338,0.35142338 0 0 0 0.578125,-7.5859375 h 0.3125 A 0.35142338,0.35142338 0 0 0 1.2402344,-7.90625 c 0.040135,-0.4575361 0.065425,-0.9845781 0.1425781,-1.4511719 0.077153,-0.4665937 0.2165953,-0.8582131 0.4042969,-1.0566401 a 0.35142338,0.35142338 0 0 0 0.00195,-0.0039 c 0.4222413,-0.458433 1.1894494,-0.511719 1.9296875,-0.511719 H 4.75 c 0.11331,0 0.1394635,0.02228 0.1464844,0.0293 0.00702,0.007 0.033203,0.03708 0.033203,0.166016 0,0.07591 -0.015625,0.187523 -0.015625,0.3125 v 9.1875 c 0,0.25525553 -0.042389,0.2733355 -0.1601563,0.33007812 C 4.6361386,-0.84755425 4.3932352,-0.8203125 4.125,-0.8203125 H 3.328125 A 0.35142338,0.35142338 0 0 0 2.9765625,-0.46875 v 0.453125 A 0.35142338,0.35142338 0 0 0 3.328125,0.3359375 H 8.34375 A 0.35142338,0.35142338 0 0 0 8.6953125,-0.015625 V -0.46875 A 0.35142338,0.35142338 0 0 0 8.34375,-0.8203125 h -0.8125 c -0.2763994,0 -0.5138243,-0.0279303 -0.6230469,-0.0820313 -0.1092226,-0.0541009 -0.1503906,-0.07157 -0.1503906,-0.33203125 v -9.1875 c 0,-0.124979 -0.015625,-0.236592 -0.015625,-0.3125 0,-0.128935 0.026182,-0.158995 0.033203,-0.166016 0.00702,-0.007 0.033174,-0.0293 0.1464844,-0.0293 h 1.03125 c 0.5146951,0 1.042947,0.02694 1.4355469,0.189454 0.3925998,0.162511 0.6700421,0.414436 0.7988281,1.0312496 a 0.35142338,0.35142338 0 0 0 0.0039,0.015625 c 0.146451,0.5711579 0.193392,1.1566861 0.240235,1.78125 a 0.35142338,0.35142338 0 0 0 0.349609,0.3261719 h 0.3125 a 0.35142338,0.35142338 0 0 0 0.349609,-0.3789063 l -0.296875,-3.7812502 a 0.35142338,0.35142338 0 0 0 -0.349609,-0.324218 z m 12.871094,0.390624 c -0.04687,0.0052 -0.179688,0.01953 -0.199219,0.02149 -0.551425,0.0919 -0.871094,0.576044 -0.871094,1.033203 0,0.528919 0.416574,1.0546875 1.039063,1.0546875 0.62156,0 1.070312,-0.5119785 1.070312,-1.0546875 0,-0.25581 -0.09682,-0.498789 -0.271484,-0.699219 -0.174661,-0.20043 -0.448188,-0.355468 -0.767578,-0.355469 z m 0.623047,3.7675786 -1.984375,0.1875 A 0.35142338,0.35142338 0 0 0 12.066406,-7.375 v 0.453125 a 0.35142338,0.35142338 0 0 0 0.351563,0.3515625 h 0.25 c 0.239971,0 0.357348,0.040482 0.402343,0.080078 0.045,0.039596 0.105469,0.1349107 0.105469,0.4433594 v 4.875 c 0,0.132822 -0.01406,0.21649383 -0.02539,0.24804688 -0.01133,0.031553 -0.0011,0.0173743 -0.02149,0.0292969 -0.04068,0.023845 -0.292771,0.0742188 -0.757812,0.0742188 A 0.35142338,0.35142338 0 0 0 12.019531,-0.46875 v 0.453125 a 0.35142338,0.35142338 0 0 0 0.351563,0.3515625 h 3.0625 A 0.35142338,0.35142338 0 0 0 15.785156,-0.015625 V -0.46875 a 0.35142338,0.35142338 0 0 0 -0.351562,-0.3515625 h -0.234375 c -0.189612,0 -0.339346,-0.0243253 -0.384766,-0.0488281 -0.04542,-0.0245029 -0.06055,-0.003583 -0.06055,-0.19335938 v -6.5 a 0.35142338,0.35142338 0 0 0 -0.384765,-0.3496094 z"
         transform="matrix(0.72798033,0,0,0.72798033,13.424814,41.984666)" />
    </g>
  </g>
  <g
     inkscape:groupmode="layer"
     id="layer5"
     inkscape:label="SVG">
    <g
       id="g7167"
       transform="matrix(0.27940027,0,0,0.27940027,29.727419,12.217235)">
      <path
         id="base"
         fill="#000000"
         d="m -88.639655,10.563963 h 74.877083 v 26.458332 c 0,6.217709 -4.7625,10.980209 -10.980209,10.980209 h -52.916666 c -6.217708,0 -10.980208,-4.7625 -10.980208,-10.980209 z"
         style="stroke-width:0.264583" />
      <g
         stroke-width="38.0086"
         stroke="#000000"
         id="g6902"
         transform="matrix(0.26458333,0,0,0.26458333,-90.888613,-29.123537)"
         style="display:inline">
        <g
           id="svgstar"
           transform="translate(150,150)">
          <path
             id="svgbar"
             fill="#ff7f00"
             d="m -84.1487,-15.8513 a 22.4171,22.4171 0 1 0 0,31.7026 H 84.1487 a 22.4171,22.4171 0 1 0 0,-31.7026 z"
             style="display:inline" />
          <use
             xlink:href="#svgbar"
             transform="rotate(45)"
             id="use6895"
             style="display:inline"
             sodipodi:insensitive="true" />
          <use
             xlink:href="#svgbar"
             transform="rotate(90)"
             id="use6897"
             style="display:inline" />
          <use
             xlink:href="#svgbar"
             transform="rotate(135)"
             id="use6899"
             inkscape:label="use6899" />
        </g>
      </g>
      <use
         xlink:href="#svgstar"
         id="use6904"
         transform="matrix(0.26458333,0,0,0.26458333,-90.888613,-29.123537)"
         style="display:inline" />
      <use
         xlink:href="#base"
         opacity="0.85"
         id="use6906"
         x="0"
         y="0" />
      <g
         id="use6908"
         fill="#ffffff"
         transform="matrix(0.52916666,0,0,0.52916666,-80.30528,12.680629)">
        <path
           id="path7133"
           d="M 5.482,31.319 C 2.163,28.001 0.109,23.419 0.109,18.358 0.109,8.232 8.322,0.024 18.443,0.024 c 10.126,0 18.339,8.208 18.339,18.334 h -10.74 c 0,-4.194 -3.404,-7.593 -7.599,-7.593 -4.194,0 -7.593,3.399 -7.593,7.593 0,2.095 0.851,3.993 2.22,5.363 h 0.005 c 1.375,1.38 2.52,1.779 5.368,2.231 v 0 c 5.066,0.527 9.648,2.054 12.966,5.372 v 0 c 3.319,3.319 5.373,7.901 5.373,12.962 0,10.126 -8.213,18.339 -18.339,18.339 C 8.322,62.625 0.109,54.412 0.109,44.286 H 10.85 c 0,4.194 3.399,7.598 7.593,7.598 4.195,0 7.599,-3.404 7.599,-7.598 0,-2.095 -0.851,-3.988 -2.221,-5.363 H 23.816 C 22.441,37.548 20.468,37.074 18.443,36.697 V 36.692 C 13.533,35.939 8.8,34.638 5.482,31.319 Z" />
        <path
           id="path7135"
           d="M 73.452,0.024 60.482,62.625 H 49.742 L 36.782,0.024 h 10.74 l 7.6,36.663 7.59,-36.663 z" />
        <path
           id="path7137"
           d="m 91.792,25.952 h 18.334 v 18.334 h 0.005 c 0,10.127 -8.213,18.34 -18.339,18.34 -10.127,0 -18.334,-8.213 -18.334,-18.34 v 0 -25.927 h -0.005 c 0,-10.126 8.212,-18.334 18.339,-18.334 10.121,0 18.334,8.208 18.334,18.334 H 99.385 c 0,-4.19 -3.404,-7.594 -7.593,-7.594 -4.195,0 -7.594,3.404 -7.594,7.594 v 25.927 0 c 0,4.195 3.399,7.594 7.594,7.594 4.189,0 7.588,-3.399 7.593,-7.589 v -0.005 -7.588 h -7.593 z" />
      </g>
    </g>
  </g>
  <g
     inkscape:groupmode="layer"
     id="layer2"
     inkscape:label="Two">
    <g
       aria-label="2"
       id="text1320"
       style="font-size:35.2778px;line-height:1.25;font-family:Yrsa;-inkscape-font-specification:Yrsa;fill:#ffffff;fill-opacity:1;stroke:#000000;stroke-width:0.8"
       transform="matrix(0.93124033,0,0,0.93124033,12.207008,-8.6410698)">
      <path
         d="m 26.352499,32.649586 c 0.39963,-0.01218 0.846668,-0.01176 1.340557,-0.03528 0.517408,-0.04704 0.96426,-0.117596 1.340556,-0.211667 0.32926,-0.07055 0.540927,-0.15287 0.635001,-0.246944 0.09407,-0.09408 0.176389,-0.223427 0.246944,-0.388056 l 1.199446,-2.57528 2.363612,0.282223 c 0,0.96426 -0.04704,1.999075 -0.141111,3.104446 -0.09407,1.081853 -0.235185,2.057872 -0.423333,2.928058 H 20.284718 L 19.43805,33.108197 c 1.975557,-1.669816 3.563059,-3.069169 4.762504,-4.198058 1.222963,-1.12889 2.104908,-2.116669 2.645835,-2.963336 0.564445,-0.846667 0.846667,-1.669815 0.846667,-2.469446 0,-0.823149 -0.246945,-1.481667 -0.740834,-1.975556 -0.470371,-0.493889 -1.081853,-0.740834 -1.834446,-0.740834 -0.682037,0 -1.317038,0.199907 -1.905001,0.599722 -0.587963,0.376297 -1.058334,0.858427 -1.411112,1.44639 l -1.270001,-0.846667 c 0.141111,-0.893705 0.493889,-1.681576 1.058334,-2.363613 0.564445,-0.682037 1.29352,-1.211204 2.187224,-1.587501 0.893704,-0.399815 1.857964,-0.599722 2.89278,-0.599722 1.740371,0 3.175002,0.458611 4.303891,1.375834 1.12889,0.893704 1.693335,2.198983 1.693335,3.915836 0,1.128889 -0.3175,2.210742 -0.952501,3.245557 -0.635,1.034816 -1.634538,2.09315 -2.998613,3.175003 -1.364075,1.081853 -5.551092,3.661788 -4.778682,3.601374 z"
         style="font-weight:bold;-inkscape-font-specification:'Yrsa Bold';fill:#ffffff;fill-opacity:1"
         id="path1423"
         sodipodi:nodetypes="sccscccccccccscscccscscssscs" />
    </g>
  </g>
  <g
     inkscape:groupmode="layer"
     id="layer3"
     inkscape:label="Rounded"
     sodipodi:insensitive="true"
     style="display:none">
    <path
       id="rect1260"
       style="fill:#000000;stroke:none;stroke-width:1;stroke-linecap:square"
       d="M 0,0 V 10.539925 C 0,4.7007145 4.7007145,0 10.539925,0 Z m 42.376742,0 c 5.83921,0 10.539925,4.7007145 10.539925,10.539925 V 0 Z M 0,42.376742 V 52.916667 H 10.539925 C 4.7007145,52.916667 0,48.215952 0,42.376742 Z m 52.916667,0 c 0,5.83921 -4.700715,10.539925 -10.539925,10.539925 h 10.539925 z" />
  </g>
  <g
     inkscape:groupmode="layer"
     id="layer4"
     inkscape:label="Circle"
     style="display:none"
     sodipodi:insensitive="true">
    <path
       id="rect938"
       style="fill:#000000;stroke:none;stroke-width:1;stroke-linecap:square"
       d="M 0,0 V 26.458333 A 26.458332,26.458334 0 0 1 26.458333,0 Z M 26.458333,0 A 26.458332,26.458334 0 0 1 52.916667,26.458333 V 0 Z M 52.916667,26.458333 A 26.458332,26.458334 0 0 1 26.458333,52.916667 H 52.916667 Z M 26.458333,52.916667 A 26.458332,26.458334 0 0 1 0,26.458333 v 26.458334 z" />
  </g>
</svg>
