<?xml version="1.0" encoding="UTF-8" standalone="no"?>
<!-- Created with Inkscape (http://www.inkscape.org/) -->

<svg
   width="19.799999mm"
   height="66.9701mm"
   viewBox="0 0 19.799999 66.9701"
   version="1.1"
   id="svg1"
   xml:space="preserve"
   inkscape:version="1.3 (1:1.3+202307231459+0e150ed6c4)"
   sodipodi:docname="articulated_leg.svg"
   xmlns:inkscape="http://www.inkscape.org/namespaces/inkscape"
   xmlns:sodipodi="http://sodipodi.sourceforge.net/DTD/sodipodi-0.dtd"
   xmlns="http://www.w3.org/2000/svg"
   xmlns:svg="http://www.w3.org/2000/svg"><sodipodi:namedview
     id="namedview1"
     pagecolor="#ffffff"
     bordercolor="#666666"
     borderopacity="1.0"
     inkscape:showpageshadow="2"
     inkscape:pageopacity="0.0"
     inkscape:pagecheckerboard="0"
     inkscape:deskcolor="#d1d1d1"
     inkscape:document-units="mm"
     inkscape:zoom="3.2762057"
     inkscape:cx="3.2049269"
     inkscape:cy="180.08637"
     inkscape:window-width="1918"
     inkscape:window-height="1173"
     inkscape:window-x="0"
     inkscape:window-y="0"
     inkscape:window-maximized="1"
     inkscape:current-layer="layer2"
     showguides="true"
     showgrid="false"><sodipodi:guide
       position="15.053508,-227.7683"
       orientation="0,-1"
       id="guide1"
       inkscape:locked="false" /><sodipodi:guide
       position="8.7678742,-2.0073562e-07"
       orientation="0,-1"
       id="guide2"
       inkscape:locked="false" /></sodipodi:namedview><defs
     id="defs1"><rect
       x="988.92896"
       y="725.97382"
       width="263.26437"
       height="102.2309"
       id="rect1" /><pattern
       patternTransform="translate(-291.246,-526.193)"
       patternUnits="userSpaceOnUse"
       x="0"
       y="0"
       width="4.98138"
       height="4.98138"
       id="pattern1409"><g
         id="g1407"><path
           d="M 0,2.98883 3.08846,-0.09962"
           style="fill:none;stroke:#000000;stroke-opacity:1;stroke-width:0.3985;stroke-linecap:butt;stroke-linejoin:miter;stroke-miterlimit:10;stroke-dasharray:none"
           id="path1405" /></g></pattern><marker
       id="DistanceX"
       orient="auto"
       refX="0"
       refY="0"
       style="overflow:visible"><path
         d="M 3,-3 -3,3 M 0,-5 V 5"
         style="stroke:#000000;stroke-width:0.5"
         id="path1" /></marker><pattern
       id="Hatch"
       patternUnits="userSpaceOnUse"
       width="8"
       height="8"
       x="0"
       y="0"><path
         d="M8 4 l-4,4"
         stroke="#000000"
         stroke-width="0.25"
         linecap="square"
         id="path2" /><path
         d="M6 2 l-4,4"
         stroke="#000000"
         stroke-width="0.25"
         linecap="square"
         id="path3" /><path
         d="M4 0 l-4,4"
         stroke="#000000"
         stroke-width="0.25"
         linecap="square"
         id="path4" /></pattern><symbol
       id="*Model_Space" /><symbol
       id="*Paper_Space" /><symbol
       id="*Paper_Space0" /><marker
       id="DistanceX-5"
       orient="auto"
       refX="0"
       refY="0"
       style="overflow:visible"><path
         d="M 3,-3 -3,3 M 0,-5 V 5"
         style="stroke:#000000;stroke-width:0.5"
         id="path1-3" /></marker><pattern
       id="Hatch-5"
       patternUnits="userSpaceOnUse"
       width="8"
       height="8"
       x="0"
       y="0"><path
         d="M8 4 l-4,4"
         stroke="#000000"
         stroke-width="0.25"
         linecap="square"
         id="path2-6" /><path
         d="M6 2 l-4,4"
         stroke="#000000"
         stroke-width="0.25"
         linecap="square"
         id="path3-2" /><path
         d="M4 0 l-4,4"
         stroke="#000000"
         stroke-width="0.25"
         linecap="square"
         id="path4-9" /></pattern><symbol
       id="*Model_Space-1" /><symbol
       id="*Paper_Space-2" /><symbol
       id="*Paper_Space0-7" /><marker
       id="DistanceX-0"
       orient="auto"
       refX="0"
       refY="0"
       style="overflow:visible"><path
         d="M 3,-3 -3,3 M 0,-5 V 5"
         style="stroke:#000000;stroke-width:0.5"
         id="path1-9" /></marker><pattern
       id="Hatch-3"
       patternUnits="userSpaceOnUse"
       width="8"
       height="8"
       x="0"
       y="0"><path
         d="M8 4 l-4,4"
         stroke="#000000"
         stroke-width="0.25"
         linecap="square"
         id="path2-60" /><path
         d="M6 2 l-4,4"
         stroke="#000000"
         stroke-width="0.25"
         linecap="square"
         id="path3-6" /><path
         d="M4 0 l-4,4"
         stroke="#000000"
         stroke-width="0.25"
         linecap="square"
         id="path4-2" /></pattern><symbol
       id="*Model_Space-6" /><symbol
       id="*Paper_Space-1" /><symbol
       id="*Paper_Space0-8" /><marker
       id="DistanceX-2"
       orient="auto"
       refX="0"
       refY="0"
       style="overflow:visible"><path
         d="M 3,-3 -3,3 M 0,-5 V 5"
         style="stroke:#000000;stroke-width:0.5"
         id="path1-2" /></marker><pattern
       id="Hatch-8"
       patternUnits="userSpaceOnUse"
       width="8"
       height="8"
       x="0"
       y="0"><path
         d="M8 4 l-4,4"
         stroke="#000000"
         stroke-width="0.25"
         linecap="square"
         id="path2-9" /><path
         d="M6 2 l-4,4"
         stroke="#000000"
         stroke-width="0.25"
         linecap="square"
         id="path3-7" /><path
         d="M4 0 l-4,4"
         stroke="#000000"
         stroke-width="0.25"
         linecap="square"
         id="path4-3" /></pattern><symbol
       id="*Model_Space-61" /><symbol
       id="*Paper_Space-29" /><symbol
       id="*Paper_Space0-3" /><marker
       id="DistanceX-4"
       orient="auto"
       refX="0"
       refY="0"
       style="overflow:visible"><path
         d="M 3,-3 -3,3 M 0,-5 V 5"
         style="stroke:#000000;stroke-width:0.5"
         id="path1-7" /></marker><pattern
       id="Hatch-6"
       patternUnits="userSpaceOnUse"
       width="8"
       height="8"
       x="0"
       y="0"><path
         d="M8 4 l-4,4"
         stroke="#000000"
         stroke-width="0.25"
         linecap="square"
         id="path2-5" /><path
         d="M6 2 l-4,4"
         stroke="#000000"
         stroke-width="0.25"
         linecap="square"
         id="path3-69" /><path
         d="M4 0 l-4,4"
         stroke="#000000"
         stroke-width="0.25"
         linecap="square"
         id="path4-37" /></pattern><symbol
       id="*Model_Space-4" /><symbol
       id="*Paper_Space-5" /><symbol
       id="*Paper_Space0-2" /></defs><g
     inkscape:groupmode="layer"
     id="layer2"
     inkscape:label="articulated_leg"
     style="opacity:1"><path
       id="path43"
       style="fill:#ffffff;fill-opacity:1;stroke:#000000;stroke-width:0.185495;stroke-linecap:round"
       d="M 1.8996122,0.23380756 C 1.6754442,1.0445776 1.6586912,1.1101476 1.5353902,1.5115376 c -0.123304,0.40138 -0.2625,0.82182 -0.417488,1.26128 -1.38325211,3.92216 -1.69899311,8.2062504 1.170283,11.2719504 1.228705,0.54665 8.6408048,0.55275 12.8299648,-0.8651 0.03249,-0.43009 0.07694,-0.9485 0.11363,-1.499 0.08605,-1.29093 0.144366,-2.4725004 0.153704,-3.5210904 0.05648,-0.31273 0.108293,-0.80471 0.155429,-1.47597 0.04714,-0.67125 0.104563,-1.9313 0.127326,-2.55159 0.02276,-0.62029 0.0468,-1.4321 0.06158,-2.01895 0.01478,-0.58685 0.0226,-0.97552 0.04363,-2.01935954 z"
       sodipodi:nodetypes="cscccscssscc"
       inkscape:label="Torso" /><path
       d="m 2.3489312,14.528398 c 0.129939,0.60722 0.110355,1.62708 0.0603,3.88575 -0.07668,3.45867 0.02156,4.56631 0.624617,7.01773 0.693418,2.81914 0.918121,5.24907 0.66533,7.501 1.083796,3.01451 2.762587,3.8966 4.202386,4.06898 0.29665,0.0355 0.583155,0.0409 0.896061,0.006 1.2974588,-0.14569 3.0488458,-0.98817 3.7547268,-3.2654 0.0025,-0.76949 0.199836,-1.67539 0.436245,-2.01291 1.036891,-1.48037 1.470672,-3.9922 1.625648,-9.41199 -0.147291,-3.22729 0.742292,-9.88575 0.771237,-14.1577604 0.0708,-2.88607 -4.238026,-2.90677 -6.3647348,-2.91414 -0.580983,-0.002 -0.999116,-0.003 -1.466723,0.004 -2.496769,0.0388 -6.404023,0.31372 -5.205095,9.2787304"
       style="fill:#ffffff;fill-opacity:1;stroke:#000000;stroke-width:0.185495;stroke-linecap:round"
       id="path19"
       sodipodi:nodetypes="ccccssccccssc"
       inkscape:label="Thigh" /><path
       d="m 11.631208,37.736168 c -0.503262,1.42716 -1.132073,4.06935 -1.397499,5.8714 -0.5344508,3.62847 -0.5255418,3.57148 -1.2512058,7.87247 -0.359081,2.1283 -0.511508,4.29134 -0.40955,6.02028 0.144081,2.87268 -1.014797,5.52945 -2.43931,6.08497 -0.252619,0.0985 -0.513593,0.13094 -0.86442,0.0608 -1.154829,-0.23096 -3.283266,-1.57357 -3.17603,-5.98444 0.104876,-3.39189 -0.0037,-7.68358 -0.687293,-10.96944 -0.72654111,-3.49205 -0.22496,-6.19686 1.165801,-9.4716 0.72882,-1.5973 3.629376,-2.75622 5.274045,-3.07293 0.324764,-0.0625 0.600557,-0.0922 0.932265,-0.0147 1.2653378,0.29578 3.3442908,2.15197 2.8531968,3.60321"
       style="fill:#ffffff;stroke:#000000;stroke-width:0.185495;stroke-linecap:round"
       id="path16-6"
       sodipodi:nodetypes="ccccsscccssc"
       inkscape:label="Calf" /><path
       d="m 2.8060302,66.844638 c 15.1945238,0.0275 21.8394438,0.41854 12.6961598,-2.47283 -0.877834,-0.27759 -2.972013,-0.99745 -4.656128,-2.28081 -1.2279308,-0.81258 -3.1004038,-1.21897 -4.6659998,-1.3297 -0.32783,-0.0232 -0.642205,-0.0334 -0.947748,-0.006 -1.154303,0.10172 -2.18255,0.7336 -3.472683,1.57482 -0.366728,2.65459 -2.34235011,4.50884 1.046399,4.515 z"
       style="fill:#ffffff;stroke:#000000;stroke-width:0.185495;stroke-linecap:round"
       id="path11-7"
       sodipodi:nodetypes="cccsscc"
       inkscape:label="Feet" /><g
       id="g5"
       inkscape:label="Joints"
       transform="translate(-5.176471,-227.86576)"><circle
         style="opacity:1;fill:none;fill-opacity:1;stroke:#000000;stroke-width:0.185529;stroke-linecap:square;stroke-linejoin:round;stroke-dasharray:none;stroke-opacity:1;paint-order:stroke fill markers"
         id="path5"
         cx="13.537424"
         cy="263.42468"
         r="0.56223404"
         inkscape:label="Knee" /><circle
         style="fill:none;fill-opacity:1;stroke:#000000;stroke-width:0.185529;stroke-linecap:square;stroke-linejoin:round;stroke-dasharray:none;stroke-opacity:1;paint-order:stroke fill markers"
         id="path5-2"
         cx="13.537407"
         cy="234.56453"
         r="0.56223404"
         inkscape:label="Hip" /><circle
         style="fill:none;fill-opacity:1;stroke:#000000;stroke-width:0.185529;stroke-linecap:square;stroke-linejoin:round;stroke-dasharray:none;stroke-opacity:1;paint-order:stroke fill markers"
         id="path5-9"
         cx="10.781122"
         cy="290.09439"
         r="0.56223404"
         inkscape:label="Ankle" /></g></g></svg>
